<?xml version="1.0" encoding="UTF-8"?>
<svg id="Layer_4" data-name="Layer 4" xmlns="http://www.w3.org/2000/svg" xmlns:xlink="http://www.w3.org/1999/xlink" viewBox="0 0 552.28 217.24">
  <defs>
    <style>
      .cls-1 {
        filter: url(#drop-shadow-8);
      }

      .cls-1, .cls-2, .cls-3 {
        fill: #3fa9f5;
      }

      .cls-2 {
        filter: url(#drop-shadow-7);
      }

      .cls-4 {
        fill: #666;
        font-family: DINAlternate-Bold, 'DIN Alternate';
        font-size: 36px;
        font-weight: 700;
      }
    </style>
    <filter id="drop-shadow-7" x="220.22" y="121.6" width="79" height="83" filterUnits="userSpaceOnUse">
      <feOffset dx="7" dy="7"/>
      <feGaussianBlur result="blur" stdDeviation="6"/>
      <feFlood flood-color="#000" flood-opacity=".5"/>
      <feComposite in2="blur" operator="in"/>
      <feComposite in="SourceGraphic"/>
    </filter>
    <filter id="drop-shadow-8" x="213.22" y="17.6" width="79" height="86" filterUnits="userSpaceOnUse">
      <feOffset dx="-4" dy="7"/>
      <feGaussianBlur result="blur-2" stdDeviation="6"/>
      <feFlood flood-color="#000" flood-opacity=".2"/>
      <feComposite in2="blur-2" operator="in"/>
      <feComposite in="SourceGraphic"/>
    </filter>
  </defs>
  <path class="cls-3" d="M236.05,41.37l2.54,14.4c.4,2.27,1.59,4.32,3.32,5.83,10.66,9.32,18.09,22.47,19.92,37.79,3.59,30.08-16.39,58.37-45.94,65.05-33.35,7.54-65.97-14.44-71.84-47.73-2.45-13.87.14-27.48,6.45-38.95,1.12-2.04,1.56-4.38,1.15-6.68l-2.54-14.38c-1.51-8.56-12.53-11.3-17.78-4.36-14.86,19.63-21.65,45.28-16.49,71.41,9.13,46.26,53.18,77.74,99.9,71.36,50.55-6.91,84.91-54.5,76.14-104.28-4.5-25.51-19.44-46.59-39.65-59.65-7.29-4.71-16.69,1.65-15.18,10.2Z"/>
  <path class="cls-3" d="M108.7,167.14h-30.32c-16.57,0-30-13.43-30-30V35.1c0-8.28-6.72-15-15-15h0c-8.28,0-15,6.72-15,15v102.04c0,33.14,26.86,60,60,60h30.32c8.28,0,15-6.72,15-15h0c0-8.28-6.72-15-15-15Z"/>
  <path class="cls-3" d="M407.6,182.14c0,8.28,6.72,15,15,15s15-6.72,15-15v-43.3c8.25,4.58,17.73,7.2,27.82,7.2h10.97c31.71,0,57.51-25.8,57.51-57.51v-10.97c0-31.71-25.8-57.51-57.51-57.51h-10.97c-31.71,0-57.77,25.8-57.77,57.51M503.9,88.53c0,15.17-12.34,27.51-27.51,27.51h-10.97c-15.17,0-27.51-12.34-27.51-27.51v-10.97c0-15.17,12.34-27.51,27.51-27.51h10.97c15.17,0,27.51,12.34,27.51,27.51v10.97Z"/>
  <path class="cls-2" d="M252.62,133.52c-4.59,9.39-11.66,17.66-20.92,23.68,5.81,8.66,12.95,16,20.99,21.93,8.35-6.21,15.36-13.68,20.91-21.99-8.88-5.78-16.19-13.9-20.98-23.61Z"/>
  <path class="cls-3" d="M382.14,60.1c-.09-.15-.19-.3-.29-.44-.71-1.12-1.44-2.22-2.2-3.3-.18-.26-.36-.51-.55-.76-.7-.98-1.42-1.96-2.17-2.91-.2-.26-.41-.52-.62-.77-.77-.96-1.55-1.91-2.35-2.84-.16-.18-.31-.36-.47-.54-.9-1.03-1.83-2.03-2.77-3.02-.03-.03-.07-.07-.1-.1-.34-.35-.68-.71-1.03-1.05-.22-.22-.45-.42-.68-.62-8.11-7.92-17.6-14.22-27.93-18.58-8-3.37-16.15,4.52-13.18,12.68l5,13.74c.79,2.17,2.31,3.97,4.29,5.17,6.76,4.09,12.73,9.52,17.47,16.09.1.13.19.27.28.4.44.61.86,1.24,1.27,1.87.07.11.14.22.21.33.44.69.87,1.38,1.29,2.09.03.05.05.09.08.14,2.3,3.95,4.18,8.24,5.57,12.83,4.91,16.27,2.42,33.26-5.64,47.13-.07.12-.15.25-.22.37-.31.52-.63,1.03-.95,1.54-.35.54-.7,1.08-1.06,1.61-.06.08-.11.16-.17.24-10.72,15.44-28.51,25.56-48.36,25.75-34.19.32-61.43-28.07-60.12-61.84.03-.84.08-1.67.15-2.5.05-.58.11-1.16.18-1.74.02-.19.04-.39.06-.58.5-4.08,1.42-8.08,2.74-11.94.09-.28.18-.55.25-.83,1.25-3.53,2.84-6.9,4.7-10.08-3.38-6.11-7.77-11.52-12.92-16.02-1.74-1.52-2.92-3.56-3.32-5.83l-.98-5.58c-11.37,13.57-18.83,30.57-20.52,49.32-.03.35-.06.69-.09,1.04-.02.3-.05.61-.07.91-.05.67-.09,1.35-.12,2.02,0,.02,0,.04,0,.05-.57,12.07,1.3,24.46,5.95,36.48,7.21,18.62,20.14,33.53,36.05,43.45.19.12.38.24.57.36.78.48,1.57.94,2.36,1.39.57.33,1.14.66,1.72.97.44.24.88.47,1.33.7.9.48,1.81.94,2.74,1.39.15.07.3.14.46.21,6.03,2.87,12.43,5.1,19.12,6.56.41.09.83.17,1.24.25.87.18,1.74.36,2.62.51,13.83,2.44,28.4,1.66,42.57-2.88,20.71-6.64,37.23-20.05,48.04-36.93,0-.01.02-.03.03-.04.32-.51.65-1.02.96-1.53,7.82-12.68,12.57-27.48,13.19-43.39.72-18.65-4.35-36.21-13.6-50.94Z"/>
  <path class="cls-1" d="M277.93,57.81c-6.95-10.74-16.1-19.79-26.69-26.63-7.29-4.71-16.69,1.65-15.18,10.2l2.54,14.4c.4,2.27,1.59,4.32,3.32,5.83,5.33,4.66,9.85,10.27,13.27,16.64l22.74-20.44Z"/>
  <path class="cls-3" d="M291.95,113.75c.62-7.49.3-15.18-1.07-22.92-4.5-25.51-19.44-46.59-39.65-59.65-7.29-4.71-16.69,1.65-15.18,10.2l2.54,14.4c.4,2.27,1.59,4.32,3.32,5.83,10.66,9.32,18.09,22.47,19.92,37.79.53,4.43.55,8.83.1,13.12"/>
  <text class="cls-4" transform="translate(446.11 191.99)"><tspan x="0" y="0">.life</tspan></text>
</svg>